<svg xmlns="http://www.w3.org/2000/svg" width="24" height="24" viewBox="0 0 24 24"><defs><style>.a{fill:none;}.b{fill:#fff;}</style></defs><g transform="translate(-162 -334)"><rect class="a" width="24" height="24" transform="translate(162 334)"/><path class="b" d="M9.159,2.459,5.023,6.547,17.365,6.6A1.436,1.436,0,0,1,18.8,8.048h0a1.436,1.436,0,0,1-1.444,1.43L5.012,9.422l4.081,4.129a1.436,1.436,0,0,1-.008,2.032h0a1.439,1.439,0,0,1-2.034-.009L.339,8.8A1.18,1.18,0,0,1,.352,7.128L7.136.416A1.438,1.438,0,0,1,9.168.425h0a1.438,1.438,0,0,1-.009,2.034Z" transform="translate(165 338)"/></g></svg>